#!OML:ASF X:\für Bonn\!DataBase\2005_08_10_Bjorn_Final\c3d\bjorn.ASF
:FULLY-SPECIFIED
:DEGREES
369
root 11.9455 19.1282 -0.302163 155.844 -91.4729 -150.226
lowerback -7.71343 -0.85946 -1.56552
upperback 1.27044 -0.915808 -1.70184
thorax 5.65255 -0.479977 -1.00805
lowerneck 7.84789 -1.35528 7.98556
upperneck 16.0877 -1.78106 -3.55767
head 3.86974 -0.829123 -2.6437
rclavicle 9.0447e-015 1.35174e-014
rhumerus -34.3041 1.53701 -81.5585
rradius 50.3554
rwrist -8.4741
rhand -9.19601 9.33984
rfingers 7.12502
rthumb 16.7578 -19.9569
lclavicle 9.0447e-015 1.35174e-014
lhumerus -34.4542 -8.80433 86.344
lradius 35.7453
lwrist -14.6731
lhand -25.2426 -13.1169
lfingers 7.12502
lthumb 1.2773 16.859
rfemur -11.9927 -13.7922 17.1146
rtibia 31.3322
rfoot -14.7517 25.5964
rtoes 11.4935
lfemur -3.06819 5.13599 -10.9748
ltibia 22.1361
lfoot -14.6777 15.4373
ltoes -23.0095
370
root 11.9235 19.1271 -0.310937 154.621 -91.4278 -148.874
lowerback -7.95007 -0.879928 -1.5676
upperback 1.05298 -0.944721 -1.6397
thorax 5.55944 -0.494823 -0.946788
lowerneck 7.79495 -1.30856 7.8934
upperneck 16.1437 -1.71906 -3.63885
head 3.90307 -0.806436 -2.65747
rclavicle -1.56543e-014 -3.18055e-015
rhumerus -34.4629 1.05504 -81.5956
rradius 50.3102
rwrist -8.45601
rhand -9.41728 9.47981
rfingers 7.12502
rthumb 16.5447 -19.8349
lclavicle -1.56543e-014 -3.18055e-015
lhumerus -34.1782 -7.99509 86.4091
lradius 35.4232
lwrist -14.672
lhand -25.337 -13.1122
lfingers 7.12502
lthumb 1.18605 16.8642
rfemur -12.0842 -14.1486 17.1148
rtibia 31.3327
rfoot -14.5428 26.0533
rtoes 11.9314
lfemur -3.142 5.15227 -10.9829
ltibia 22.1654
lfoot -14.7585 15.5339
ltoes -22.9541
371
root 11.9037 19.1266 -0.319316 152.826 -91.4005 -146.945
lowerback -8.17286 -0.891095 -1.58613
upperback 0.849083 -0.959809 -1.58339
thorax 5.47295 -0.503428 -0.880694
lowerneck 7.68455 -1.26275 7.80134
upperneck 16.2268 -1.66251 -3.71517
head 3.95654 -0.785912 -2.6712
rclavicle 1.73937e-015 1.39149e-014
rhumerus -34.5484 0.509886 -81.6239
rradius 50.176
rwrist -8.39663
rhand -9.63167 9.62256
rfingers 7.12502
rthumb 16.3383 -19.7092
lclavicle 1.73937e-015 1.39149e-014
lhumerus -33.8449 -7.2861 86.5156
lradius 35.044
lwrist -14.6937
lhand -25.4476 -13.1164
lfingers 7.12502
lthumb 1.07929 16.8606
rfemur -12.187 -14.4511 17.1015
rtibia 31.3376
rfoot -14.3632 26.4279
rtoes 12.2874
lfemur -3.23482 5.24689 -11.0078
ltibia 22.1987
lfoot -14.7846 15.611
ltoes -22.9991
372
root 11.8855 19.1259 -0.326794 152.178 -91.3477 -146.185
lowerback -8.36701 -0.896279 -1.55766
upperback 0.667771 -0.972463 -1.51515
thorax 5.39328 -0.509576 -0.828127
lowerneck 7.53491 -1.21401 7.68906
upperneck 16.2977 -1.60532 -3.77294
head 4.01275 -0.765303 -2.67496
rclavicle 7.03201e-015 7.95139e-015
rhumerus -34.5682 -0.0525063 -81.6556
rradius 49.9504
rwrist -8.36294
rhand -9.88269 9.77534
rfingers 7.12502
rthumb 16.0966 -19.5761
lclavicle 7.03201e-015 7.95139e-015
lhumerus -33.4293 -6.61025 86.6275
lradius 34.5715
lwrist -14.8138
lhand -25.5076 -13.1946
lfingers 7.12502
lthumb 1.02135 16.7827
rfemur -12.2694 -14.7209 17.1266
rtibia 31.3415
rfoot -14.1713 26.7886
rtoes 12.7266
lfemur -3.30992 5.39606 -10.9829
ltibia 22.236
lfoot -14.7717 15.6169
ltoes -23.0812
373
root 11.869 19.1242 -0.334613 150.78 -91.3032 -144.676
lowerback -8.53594 -0.891421 -1.53813
upperback 0.482885 -0.971478 -1.45862
thorax 5.29556 -0.509252 -0.780508
lowerneck 7.41611 -1.17621 7.58734
upperneck 16.3432 -1.55751 -3.84171
head 4.05347 -0.749239 -2.68335
rclavicle 9.93923e-017 -2.78299e-015
rhumerus -34.5765 -0.655452 -81.6902
rradius 49.6635
rwrist -8.27553
rhand -10.1822 9.94437
rfingers 7.12502
rthumb 15.8082 -19.4302
lclavicle 9.93923e-017 -2.78299e-015
lhumerus -32.9899 -5.90624 86.728
lradius 34.0185
lwrist -15.2152
lhand -25.6082 -13.326
lfingers 7.12502
lthumb 0.924129 16.6517
rfemur -12.3683 -15.0827 17.1323
rtibia 31.3499
rfoot -13.9769 27.2074
rtoes 12.9585
lfemur -3.38874 5.44162 -10.9901
ltibia 22.2691
lfoot -14.8211 15.6853
ltoes -22.9873
374
root 11.8538 19.1242 -0.341247 149.212 -91.2624 -142.996
lowerback -8.70175 -0.890181 -1.52738
upperback 0.315769 -0.97493 -1.3861
thorax 5.21509 -0.511599 -0.71214
lowerneck 7.2587 -1.13266 7.43137
upperneck 16.3716 -1.50693 -3.88383
head 4.0949 -0.73363 -2.67245
rclavicle 1.41634e-014 1.74931e-014
rhumerus -34.5484 -1.29202 -81.7033
rradius 49.325
rwrist -8.14883
rhand -10.5162 10.1924
rfingers 7.12502
rthumb 15.4865 -19.2073
lclavicle 1.41634e-014 1.74931e-014
lhumerus -32.4543 -5.11033 86.8279
lradius 33.3374
lwrist -15.9549
lhand -25.7446 -13.4327
lfingers 7.12502
lthumb 0.79242 16.5456
rfemur -12.4591 -15.3596 17.136
rtibia 31.351
rfoot -13.7764 27.5627
rtoes 13.3495
lfemur -3.47752 5.56967 -10.995
ltibia 22.3166
lfoot -14.84 15.6846
ltoes -22.8575
375
root 11.8403 19.1246 -0.348312 146.822 -91.2303 -140.504
lowerback -8.83487 -0.883238 -1.52782
upperback 0.155069 -0.96999 -1.3256
thorax 5.12288 -0.510011 -0.648427
lowerneck 6.97669 -1.08968 7.30336
upperneck 16.8273 -1.4284 -4.09779
head 3.83406 -0.723921 -2.51433
rclavicle 4.27387e-015 7.15625e-015
rhumerus -34.5054 -1.92489 -81.733
rradius 48.954
rwrist -8.06982
rhand -10.8356 10.4054
rfingers 7.12502
rthumb 15.1789 -19.0178
lclavicle 4.27387e-015 7.15625e-015
lhumerus -31.9432 -4.45145 86.9533
lradius 32.6803
lwrist -16.7248
lhand -25.9085 -13.4748
lfingers 7.12502
lthumb 0.634094 16.504
rfemur -12.5459 -15.6362 17.1203
rtibia 31.3518
rfoot -13.5914 27.905
rtoes 13.6736
lfemur -3.56582 5.68052 -11.022
ltibia 22.3654
lfoot -14.7999 15.7304
ltoes -22.8899
376
root 11.829 19.1243 -0.353778 145.583 -91.2053 -139.174
lowerback -8.93577 -0.877683 -1.48851
upperback 0.0105059 -0.971196 -1.26909
thorax 5.02866 -0.51036 -0.611685
lowerneck 6.79529 -1.05065 7.17583
upperneck 16.8241 -1.37809 -4.15394
head 3.86358 -0.707394 -2.51129
rclavicle -9.70318e-015 8.74653e-015
rhumerus -34.4563 -2.5749 -81.768
rradius 48.5735
rwrist -7.93936
rhand -11.1238 10.4964
rfingers 7.12502
rthumb 14.9013 -18.9476
lclavicle -9.70318e-015 8.74653e-015
lhumerus -31.3683 -3.85702 87.092
lradius 31.9818
lwrist -17.5584
lhand -26.0242 -13.5282
lfingers 7.12502
lthumb 0.522333 16.4509
rfemur -12.6196 -15.9232 17.125
rtibia 31.3489
rfoot -13.4104 28.2455
rtoes 13.9407
lfemur -3.65282 5.7787 -11.0301
ltibia 22.418
lfoot -14.8227 15.7505
ltoes -22.8212
